<?xml version="1.0" standalone="no"?>
<!DOCTYPE svg PUBLIC "-//W3C//DTD SVG 20010904//EN"
 "http://www.w3.org/TR/2001/REC-SVG-20010904/DTD/svg10.dtd">
<svg version="1.0" xmlns="http://www.w3.org/2000/svg"
 width="220.000000pt" height="220.000000pt" viewBox="0 0 220.000000 220.000000"
 preserveAspectRatio="xMidYMid meet">

<g transform="translate(0.000000,220.000000) scale(0.100000,-0.100000)"
fill="#000000" stroke="none">
<path d="M0 1100 l0 -1100 1100 0 1100 0 0 1100 0 1100 -1100 0 -1100 0 0
-1100z m1040 1060 c0 -16 -4 -30 -10 -30 -5 0 -10 -4 -10 -10 0 -5 11 -10 25
-10 18 0 26 -7 31 -25 8 -30 -1 -44 -18 -27 -21 21 -29 13 -26 -25 3 -32 0
-38 -17 -38 -12 0 -21 8 -23 20 -7 41 -12 49 -24 37 -19 -19 -28 -14 -28 13 0
14 7 28 15 31 13 5 13 8 0 20 -11 12 -19 12 -35 4 -17 -9 -20 -8 -20 9 0 11
-2 26 -5 34 -5 11 4 13 48 9 34 -3 57 0 61 7 14 23 36 11 36 -19z m295 -22
c51 -11 61 -17 63 -36 2 -13 -8 -41 -22 -63 -14 -21 -26 -40 -26 -42 0 -3 12
-2 27 1 22 4 25 2 20 -12 -4 -10 -7 -24 -7 -32 0 -18 -24 -18 -40 1 -7 8 -23
15 -36 15 -27 0 -32 21 -9 40 19 16 19 27 0 47 -10 9 -13 23 -9 37 4 14 3 18
-4 11 -5 -5 -12 -19 -14 -30 -2 -15 -12 -21 -38 -23 -62 -4 -85 36 -49 82 24
30 18 30 144 4z m-477 -30 c22 -22 14 -58 -18 -76 -26 -15 -30 -23 -30 -59 0
-36 -3 -43 -20 -43 -16 0 -20 7 -20 30 0 25 -4 30 -25 30 -30 0 -49 32 -41 66
11 43 125 81 154 52z m618 -25 c3 -10 9 -25 13 -33 5 -9 1 -32 -10 -57 -10
-24 -15 -44 -11 -44 4 -1 14 -2 22 -3 9 0 14 -9 12 -21 -6 -34 -18 -37 -55
-13 -31 19 -36 27 -31 48 3 14 10 27 15 28 5 2 9 28 9 58 0 42 3 54 15 54 9 0
18 -8 21 -17z m-813 -83 c14 -16 29 -40 33 -52 6 -21 7 -21 21 -2 14 19 14 19
29 0 21 -30 17 -40 -22 -52 l-36 -12 -34 54 c-36 56 -61 72 -48 32 4 -13 18
-40 31 -61 24 -38 23 -57 -2 -57 -18 0 -75 97 -75 127 0 24 34 53 61 53 10 0
29 -13 42 -30z m990 -32 c8 -43 6 -51 -20 -89 -15 -23 -34 -44 -40 -47 -26 -8
-25 29 1 66 29 43 32 52 13 52 -7 0 -23 -18 -37 -40 -26 -42 -46 -51 -56 -25
-8 20 43 94 73 108 13 6 23 14 23 19 0 5 8 8 17 6 12 -2 21 -18 26 -50z m-355
-43 c109 -26 255 -97 327 -160 68 -60 81 -72 108 -104 33 -40 45 -36 20 7 -17
29 -17 31 2 52 29 32 93 62 115 55 11 -3 28 -19 39 -34 20 -27 20 -29 2 -45
-19 -18 -31 -12 -31 15 0 26 -23 29 -58 7 -38 -23 -40 -43 -10 -68 l22 -17
-22 -12 c-29 -16 -28 -22 14 -89 165 -257 147 -657 -41 -908 -167 -223 -408
-347 -675 -347 -595 0 -995 580 -784 1139 42 113 122 227 224 321 103 95 290
182 436 202 86 12 229 5 312 -14z m-735 -46 c45 -46 48 -53 34 -67 -15 -14
-20 -11 -61 31 -24 26 -49 47 -55 47 -6 0 -18 -14 -27 -31 l-16 -31 -15 22
c-14 19 -13 23 4 42 19 21 48 36 72 37 8 1 37 -22 64 -50z m1167 16 c9 -11 16
-12 26 -4 18 15 37 1 31 -23 -3 -11 0 -29 6 -39 9 -15 8 -22 -6 -36 -17 -17
-18 -17 -23 5 -4 12 -10 22 -15 22 -12 0 -11 -7 3 -30 10 -15 10 -25 2 -38
-18 -27 -44 -26 -75 4 l-29 28 37 38 c33 34 35 38 16 38 -30 0 -39 19 -17 35
24 18 29 18 44 0z m-1309 -75 c11 -6 19 -21 19 -36 0 -16 10 -34 25 -46 28
-21 29 -26 15 -48 -8 -12 -11 -12 -28 3 -10 9 -32 19 -48 23 -47 9 -78 37 -70
62 15 46 48 62 87 42z m-404 -647 c-2 -21 -4 -6 -4 32 0 39 2 55 4 38 2 -18 2
-50 0 -70z m2084 -9 c9 -3 15 -18 15 -40 0 -28 -4 -34 -21 -34 -12 0 -26 -5
-33 -12 -9 -9 -12 -7 -12 10 0 11 -7 25 -16 30 -14 8 -13 12 8 35 13 15 28 24
33 22 6 -3 17 -8 26 -11z m-1956 -34 c3 -5 14 -10 24 -10 15 0 18 -8 18 -40 0
-34 -2 -40 -18 -35 -9 3 -20 1 -24 -5 -8 -14 -25 -13 -25 2 0 6 -8 20 -17 31
-17 18 -17 19 0 28 9 6 17 17 17 24 0 17 16 20 25 5z m220 -570 c-19 -21 -19
-21 9 -18 19 2 32 -3 39 -14 10 -15 6 -23 -23 -47 -35 -31 -64 -39 -75 -22 -3
5 0 13 7 17 9 6 5 10 -12 14 -16 4 -24 12 -22 23 2 10 -4 17 -13 17 -28 0 -15
28 27 59 42 31 42 31 62 11 19 -19 19 -20 1 -40z m1515 -10 c0 -5 6 -10 14
-10 7 0 19 -7 26 -15 11 -13 10 -21 -7 -43 -23 -30 -53 -41 -53 -19 0 8 -9 17
-20 20 -27 7 -25 34 3 58 25 21 37 24 37 9z m-1425 -70 c0 -8 -6 -14 -12 -12
-7 1 -13 -3 -13 -10 0 -16 -41 -58 -56 -58 -29 0 -24 25 12 61 39 38 69 47 69
19z m1383 -25 c25 -29 18 -56 -18 -75 -48 -26 -87 35 -49 76 28 30 40 30 67
-1z m-1354 -38 c28 -23 28 -24 12 -54 -20 -41 -34 -49 -52 -31 -12 12 -11 17
6 36 24 25 10 30 -15 6 -14 -15 -18 -15 -31 -2 -13 13 -12 18 10 41 30 33 33
33 70 4z m1506 3 c0 -13 -5 -18 -14 -14 -8 3 -12 12 -9 20 8 21 23 17 23 -6z
m-235 -36 l28 -36 -28 -24 c-16 -13 -33 -24 -40 -24 -20 0 -58 48 -52 64 9 22
23 20 41 -6 9 -12 19 -19 22 -15 4 4 -1 16 -11 27 -14 16 -15 22 -5 35 7 8 14
15 15 15 1 0 15 -16 30 -36z m-1189 1 c8 -19 -47 -96 -66 -92 -22 4 -16 30 16
71 32 39 42 44 50 21z m58 -66 c20 -16 30 -19 39 -10 18 18 34 13 40 -15 3
-17 -1 -31 -13 -41 -10 -9 -15 -23 -12 -35 4 -16 0 -19 -19 -16 -20 2 -24 9
-25 38 -1 50 -5 59 -13 30 -8 -31 -45 -38 -72 -14 -20 18 -26 44 -10 44 5 0
11 9 14 20 7 26 37 26 71 -1z m1051 -9 c8 -16 15 -31 15 -35 0 -13 -44 -3 -56
13 -13 15 -13 14 -5 -10 8 -20 6 -29 -5 -39 -17 -14 -16 -14 -39 30 -17 34
-17 35 6 52 36 28 66 24 84 -11z m-1315 0 c0 -5 -2 -10 -4 -10 -3 0 -8 5 -11
10 -3 6 -1 10 4 10 6 0 11 -4 11 -10z m1204 -29 c24 -26 17 -63 -16 -78 -33
-17 -54 -8 -67 25 -9 26 -9 26 -10 -9 -1 -21 -8 -42 -17 -50 -14 -11 -20 -9
-45 19 -16 18 -29 37 -29 42 0 17 38 11 50 -7 10 -15 11 -15 6 -1 -5 18 19 57
30 46 3 -4 18 2 32 12 31 25 44 25 66 1z m-784 -28 c31 -14 40 -23 41 -43 l0
-25 11 23 c11 22 48 31 48 11 0 -10 -27 -48 -64 -91 -9 -10 -23 -14 -35 -11
-24 6 -29 33 -6 33 16 0 19 20 9 58 -8 30 -28 28 -52 -5 -16 -21 -23 -25 -32
-16 -9 8 -9 20 1 47 15 41 23 43 79 19z m317 -45 c-16 -88 -20 -99 -36 -96
-10 2 -18 18 -22 43 -8 47 11 85 42 85 18 0 20 -4 16 -32z m174 16 c10 -12 10
-20 1 -34 -9 -14 -8 -21 3 -30 8 -7 15 -19 15 -26 0 -19 -35 -18 -51 2 -12 14
-14 14 -21 -6 -5 -13 -15 -20 -25 -18 -14 2 -19 17 -24 58 -3 30 -4 58 -2 63
8 14 90 7 104 -9z m109 -13 c18 -34 12 -58 -19 -71 -40 -16 -71 1 -71 38 0 16
5 33 12 40 19 19 66 15 78 -7z m-360 -20 c16 -31 12 -49 -14 -66 -17 -11 -30
-13 -48 -6 -32 12 -41 34 -26 66 14 32 72 36 88 6z m685 -21 c-3 -5 -13 -10
-21 -10 -8 0 -12 5 -9 10 3 6 13 10 21 10 8 0 12 -4 9 -10z m-215 -100 c0 -5
-2 -10 -4 -10 -3 0 -8 5 -11 10 -3 6 -1 10 4 10 6 0 11 -4 11 -10z m-705 -10
c3 -5 1 -10 -4 -10 -6 0 -11 5 -11 10 0 6 2 10 4 10 3 0 8 -4 11 -10z"/>
<path d="M1220 2106 c0 -24 17 -28 23 -6 3 13 0 20 -9 20 -8 0 -14 -6 -14 -14z"/>
<path d="M1340 2090 c0 -5 5 -10 10 -10 6 0 10 5 10 10 0 6 -4 10 -10 10 -5 0
-10 -4 -10 -10z"/>
<path d="M802 2069 c2 -6 8 -10 13 -10 5 0 11 4 13 10 2 6 -4 11 -13 11 -9 0
-15 -5 -13 -11z"/>
<path d="M750 2046 c0 -9 5 -16 10 -16 6 0 10 4 10 9 0 6 -4 13 -10 16 -5 3
-10 -1 -10 -9z"/>
<path d="M1020 1305 c-31 -18 -16 -18 30 0 23 9 28 14 15 14 -11 0 -31 -6 -45
-14z"/>
<path d="M1158 1305 c17 -8 32 -21 32 -29 0 -9 7 -12 20 -9 14 4 20 0 20 -12
0 -11 -5 -15 -15 -12 -21 9 -28 -8 -9 -24 40 -33 62 -112 41 -146 -4 -6 -2
-14 3 -16 6 -3 5 -4 -2 -3 -8 2 -12 15 -10 35 4 41 -13 94 -38 116 -27 24 -25
13 5 -35 28 -45 32 -75 10 -84 -8 -3 -14 -16 -14 -28 1 -13 -2 -32 -7 -43 -7
-17 -6 -18 8 -7 11 9 18 10 23 2 3 -6 11 -8 16 -5 14 9 11 -13 -6 -39 -13 -20
-53 -43 -105 -60 -10 -3 -9 -5 5 -5 40 -2 121 49 145 91 27 48 36 136 19 187
-22 66 -81 121 -144 134 l-30 6 33 -14z"/>
<path d="M959 1269 c-23 -19 -23 -20 -2 -10 12 6 25 16 28 21 10 16 -1 12 -26
-11z"/>
<path d="M1442 1244 c10 -10 20 -15 24 -12 3 4 -5 12 -18 18 -22 12 -22 12 -6
-6z"/>
<path d="M941 1208 c-29 -31 -38 -118 -17 -172 19 -51 47 -79 99 -101 34 -14
37 -14 37 1 0 9 9 18 19 21 11 3 21 13 24 24 7 25 -43 121 -65 127 -10 2 -18
8 -18 13 0 4 8 13 18 18 16 10 16 10 0 11 -21 0 -25 40 -5 40 6 0 4 5 -6 11
-9 5 -22 7 -27 4 -6 -3 -10 -2 -10 3 0 20 -31 20 -49 0z m32 -113 c4 -27 3
-35 -3 -25 -5 8 -10 28 -10 44 0 39 6 30 13 -19z"/>
<path d="M1500 1203 c0 -6 8 -17 18 -24 16 -13 16 -13 2 6 -8 11 -16 22 -17
24 -2 2 -3 0 -3 -6z"/>
<path d="M1530 1151 c0 -6 4 -13 10 -16 6 -3 7 1 4 9 -7 18 -14 21 -14 7z"/>
<path d="M1183 1115 c-8 -8 -9 -16 -3 -20 5 -3 14 4 20 15 12 23 1 26 -17 5z"/>
<path d="M1068 903 c6 -2 18 -2 25 0 6 3 1 5 -13 5 -14 0 -19 -2 -12 -5z"/>
<path d="M1705 1780 c-3 -5 -1 -10 4 -10 6 0 11 5 11 10 0 6 -2 10 -4 10 -3 0
-8 -4 -11 -10z"/>
<path d="M380 1776 c0 -9 7 -16 16 -16 9 0 14 5 12 12 -6 18 -28 21 -28 4z"/>
<path d="M970 164 c0 -8 5 -12 10 -9 6 4 8 11 5 16 -9 14 -15 11 -15 -7z"/>
</g>
</svg>
