<?xml version="1.0" standalone="no"?>
<!DOCTYPE svg PUBLIC "-//W3C//DTD SVG 20010904//EN"
 "http://www.w3.org/TR/2001/REC-SVG-20010904/DTD/svg10.dtd">
<svg version="1.0" xmlns="http://www.w3.org/2000/svg"
 width="344.000000pt" height="111.000000pt" viewBox="0 0 344.000000 111.000000"
 preserveAspectRatio="xMidYMid meet">

<g transform="translate(0.000000,111.000000) scale(0.100000,-0.100000)"
fill="#000000" stroke="none">
<path d="M232 829 c-171 -85 -225 -298 -117 -461 34 -51 85 -87 163 -114 71
-25 121 -30 150 -15 9 6 29 12 43 15 45 10 123 69 156 119 43 64 56 117 51
202 -8 120 -68 208 -178 259 -68 32 -155 37 -146 9 3 -10 1 -25 -4 -32 -7 -12
-12 -8 -27 17 -10 18 -21 32 -24 32 -3 0 -33 -14 -67 -31z m219 -6 c1 -17 3
-21 6 -10 6 23 23 22 23 -3 0 -21 15 -27 25 -10 3 6 10 10 16 10 12 0 12 -37
-1 -45 -13 -8 -13 -25 -1 -25 5 0 13 9 16 20 9 29 39 26 33 -4 -4 -18 -1 -22
13 -19 9 3 20 -1 25 -8 5 -9 2 -10 -10 -6 -28 11 -31 -21 -6 -73 64 -137 -31
-317 -178 -337 -32 -4 -42 -10 -44 -27 -2 -13 -12 -22 -25 -24 -30 -4 -30 23
0 33 20 6 19 8 -13 14 -82 17 -156 76 -187 148 -17 42 -17 144 1 187 7 18 28
48 45 68 27 31 29 37 16 48 -12 10 -16 9 -21 -3 -3 -9 -3 -21 1 -27 3 -5 -1
-10 -10 -10 -8 0 -18 7 -21 14 -7 18 30 61 45 51 6 -3 11 0 11 8 0 23 25 27
43 7 8 -10 13 -21 9 -24 -3 -4 9 -1 27 5 19 7 63 9 104 7 47 -4 64 -2 49 3
-13 5 -20 13 -17 19 3 5 -3 10 -14 10 -12 0 -21 7 -21 15 0 10 10 15 30 15 26
0 30 -4 31 -27z m-151 5 c0 -7 -5 -20 -10 -28 -8 -13 -11 -13 -26 2 -9 9 -13
21 -10 27 10 15 46 14 46 -1z m360 -273 c0 -8 -4 -15 -10 -15 -5 0 -10 7 -10
15 0 8 5 15 10 15 6 0 10 -7 10 -15z m-558 -10 c0 -5 -5 -11 -11 -13 -6 -2
-11 4 -11 13 0 9 5 15 11 13 6 -2 11 -8 11 -13z m75 -169 c14 -22 41 -43 73
-58 49 -22 62 -46 31 -56 -10 -3 -12 0 -8 12 5 12 3 16 -5 13 -35 -12 -146 77
-135 107 9 24 20 19 44 -18z m427 6 c3 -5 -7 -20 -22 -34 -32 -29 -92 -71 -92
-65 0 3 -21 -1 -47 -9 -29 -9 -50 -11 -56 -5 -16 16 1 29 36 29 41 0 103 30
136 66 26 27 36 32 45 18z"/>
<path d="M236 763 c-6 -14 -5 -15 5 -6 7 7 10 15 7 18 -3 3 -9 -2 -12 -12z"/>
<path d="M477 769 c7 -7 15 -10 18 -7 3 3 -2 9 -12 12 -14 6 -15 5 -6 -5z"/>
<path d="M395 585 c5 -11 8 -32 7 -47 -2 -36 14 -36 23 -1 5 20 1 31 -16 47
-21 20 -22 20 -14 1z"/>
<path d="M322 574 c-17 -32 16 -90 39 -67 6 6 2 24 -10 48 -17 35 -19 37 -29
19z"/>
<path d="M770 670 c0 -78 17 -96 22 -22 l3 47 25 -47 c13 -27 27 -48 30 -48 3
0 17 21 30 48 l25 47 3 -47 c5 -74 22 -56 22 22 0 86 -16 92 -50 20 -13 -27
-26 -50 -30 -50 -4 0 -17 23 -30 50 -34 72 -50 66 -50 -20z"/>
<path d="M975 670 c0 -56 3 -70 15 -70 12 0 15 14 15 70 0 56 -3 70 -15 70
-12 0 -15 -14 -15 -70z"/>
<path d="M1050 670 c0 -81 18 -95 22 -17 l3 52 38 -52 c22 -29 43 -53 48 -53
5 0 8 33 7 73 -1 62 -2 65 -5 20 -2 -29 -7 -53 -11 -53 -4 0 -22 23 -41 50
-48 71 -61 66 -61 -20z"/>
<path d="M1225 670 c0 -56 3 -70 15 -70 12 0 15 14 15 70 0 56 -3 70 -15 70
-12 0 -15 -14 -15 -70z"/>
<path d="M1308 729 c-28 -16 -21 -37 23 -64 34 -22 39 -29 28 -41 -9 -11 -22
-14 -41 -10 -15 3 -28 1 -28 -4 0 -15 76 -12 89 4 16 20 4 42 -36 66 -30 17
-33 23 -22 36 8 10 21 13 36 9 13 -3 23 -1 23 5 0 13 -50 12 -72 -1z"/>
<path d="M1438 730 c19 -8 22 -16 22 -70 0 -33 4 -60 10 -60 6 0 10 28 10 64
0 59 2 65 23 69 12 2 -3 5 -33 5 -42 1 -50 -1 -32 -8z"/>
<path d="M1560 670 c0 -40 4 -70 10 -70 6 0 10 14 10 30 0 39 12 38 44 -2 31
-40 46 -30 17 10 -18 25 -19 31 -6 36 21 8 19 43 -4 56 -11 5 -31 10 -45 10
-25 0 -26 -2 -26 -70z m60 45 c10 -12 10 -18 0 -30 -21 -25 -40 -18 -40 15 0
33 19 40 40 15z"/>
<path d="M1690 735 c0 -3 9 -23 20 -45 11 -22 20 -51 20 -65 0 -14 5 -25 10
-25 6 0 10 9 10 20 0 12 11 43 25 70 14 28 21 50 15 50 -5 0 -17 -14 -26 -32
l-16 -31 -19 24 c-10 13 -19 27 -19 32 0 8 -20 10 -20 2z"/>
<path d="M1920 720 c-24 -24 -26 -67 -4 -98 20 -28 83 -31 107 -4 23 25 22 85
-1 105 -25 23 -78 21 -102 -3z m84 -9 c27 -30 18 -83 -16 -95 -55 -19 -91 51
-48 94 25 25 42 25 64 1z"/>
<path d="M2092 668 c0 -40 3 -58 5 -40 4 28 8 32 36 33 l32 1 -30 7 c-24 5
-30 12 -30 31 0 19 6 26 30 31 29 6 29 7 -7 8 l-38 1 2 -72z"/>
<path d="M2280 670 c0 -40 4 -70 10 -70 6 0 10 14 10 30 0 19 5 30 14 30 8 0
23 -13 33 -30 9 -16 23 -30 31 -30 9 0 7 9 -9 31 -16 23 -19 33 -10 42 16 16
13 54 -5 61 -9 3 -29 6 -45 6 l-29 0 0 -70z m54 54 c32 -12 13 -54 -25 -54
-10 0 -12 43 -2 53 8 8 8 8 27 1z"/>
<path d="M2420 670 l0 -70 43 2 c36 1 37 2 10 5 l-32 4 2 57 c2 54 3 57 32 63
27 6 26 7 -12 8 l-43 1 0 -70z"/>
<path d="M2535 723 c4 -10 16 -42 27 -70 12 -29 26 -53 33 -53 12 0 68 130 60
139 -9 8 -21 -11 -40 -64 l-19 -50 -14 35 c-8 19 -18 45 -23 58 -5 12 -14 22
-20 22 -7 0 -8 -7 -4 -17z"/>
<path d="M2700 670 l0 -70 43 1 42 2 -35 6 c-35 6 -35 6 -35 61 0 53 1 55 30
61 29 6 29 7 -7 8 l-38 1 0 -70z"/>
<path d="M2820 670 c0 -81 18 -95 22 -17 l3 52 35 -52 c48 -72 60 -69 60 17 0
81 -18 95 -22 18 l-3 -53 -34 53 c-47 73 -61 69 -61 -18z"/>
<path d="M2990 689 c0 -68 13 -89 53 -89 18 0 38 4 46 9 18 12 29 131 12 131
-6 0 -11 -19 -11 -46 0 -55 -14 -84 -40 -84 -26 0 -40 29 -40 84 0 25 -4 46
-10 46 -5 0 -10 -23 -10 -51z"/>
<path d="M3160 670 l0 -70 43 2 c36 1 38 2 10 5 l-33 4 0 59 c0 56 1 59 28 63
22 3 20 4 -10 6 l-38 1 0 -70z"/>
<path d="M3293 733 c-27 -10 -14 -51 23 -72 42 -25 40 -46 -4 -46 -18 0 -32
-3 -32 -7 0 -13 65 -9 78 4 20 20 13 38 -23 60 -43 25 -44 54 -2 51 15 -1 27
2 27 8 0 9 -46 11 -67 2z"/>
<path d="M1360 517 c0 -10 8 -17 19 -17 17 0 31 -18 31 -41 0 -5 -11 -9 -25
-9 -16 0 -25 -6 -25 -15 0 -8 5 -15 10 -15 6 0 10 5 10 10 0 6 7 10 15 10 11
0 15 -11 15 -40 0 -22 5 -40 10 -40 6 0 10 18 10 40 0 33 3 40 19 40 11 0 21
-6 24 -12 2 -7 8 -10 12 -6 12 12 -5 28 -31 28 -13 0 -24 4 -24 9 0 5 -3 16
-6 25 -4 11 0 16 14 16 24 0 37 16 22 25 -5 3 -10 1 -10 -4 0 -15 -63 -14 -78
1 -9 9 -12 8 -12 -5z"/>
<path d="M2007 494 c3 -9 1 -19 -6 -23 -16 -10 -27 -111 -12 -111 6 0 11 16
11 38 0 21 6 47 14 57 22 30 46 3 46 -51 0 -24 5 -44 10 -44 6 0 10 22 10 49
0 44 -3 51 -34 75 -40 30 -48 32 -39 10z"/>
<path d="M775 490 c-7 -11 1 -88 12 -116 10 -27 22 -14 17 19 -5 27 -2 34 18
42 15 7 23 18 23 35 0 21 -5 26 -32 28 -17 2 -34 -2 -38 -8z m52 -16 c7 -18
-17 -38 -31 -24 -11 11 -1 40 14 40 6 0 13 -7 17 -16z"/>
<path d="M1022 488 c-14 -14 -16 -128 -2 -128 6 0 10 24 10 54 0 37 5 58 16
67 24 20 44 -13 44 -73 0 -41 3 -48 20 -48 11 0 20 -4 20 -10 0 -5 5 -10 10
-10 20 0 9 21 -15 30 -22 9 -25 15 -25 64 0 40 -4 55 -16 60 -25 9 -49 7 -62
-6z"/>
<path d="M1203 494 c-22 -9 -16 -65 7 -71 18 -5 18 -7 3 -29 -24 -37 -8 -41
22 -6 14 17 35 32 47 34 29 4 46 33 32 56 -11 17 -84 27 -111 16z m37 -34 c0
-32 -9 -37 -28 -18 -7 7 -8 17 -1 30 15 27 29 22 29 -12z m60 -1 c0 -10 -2
-19 -4 -19 -2 0 -11 -3 -20 -6 -12 -5 -16 0 -16 18 0 14 3 27 6 31 11 11 34
-5 34 -24z"/>
<path d="M1860 475 c0 -16 6 -25 15 -25 17 0 19 -13 6 -58 -9 -30 -8 -32 15
-32 13 0 24 -4 24 -10 0 -5 5 -10 10 -10 6 0 10 7 10 15 0 9 -9 15 -21 15 -20
0 -21 4 -15 45 6 37 4 45 -8 45 -9 0 -16 9 -16 20 0 11 -4 20 -10 20 -5 0 -10
-11 -10 -25z"/>
<path d="M2180 475 c0 -20 -5 -25 -24 -25 -14 0 -28 -5 -31 -11 -10 -16 4 -24
17 -11 24 24 38 13 38 -29 0 -38 2 -40 27 -37 34 4 46 38 14 38 -14 0 -21 6
-21 20 0 21 24 28 35 10 10 -16 25 -12 19 5 -4 8 -17 15 -30 15 -19 0 -24 5
-24 25 0 14 -4 25 -10 25 -5 0 -10 -11 -10 -25z m40 -95 c0 -5 -4 -10 -10 -10
-5 0 -10 5 -10 10 0 6 5 10 10 10 6 0 10 -4 10 -10z"/>
<path d="M908 483 c-9 -2 -19 -11 -22 -19 -6 -16 9 -19 19 -4 3 6 13 10 22 10
13 0 14 -8 9 -39 -3 -22 -9 -46 -12 -55 -3 -9 -1 -16 5 -16 12 0 33 73 29 103
-3 22 -19 29 -50 20z"/>
<path d="M1612 478 c-7 -7 -12 -22 -12 -35 0 -20 5 -23 40 -23 38 0 40 2 40
30 0 20 5 30 15 30 9 0 15 -9 15 -25 0 -20 5 -25 26 -25 25 0 26 -2 20 -35 -6
-30 -4 -35 13 -35 11 0 23 -5 26 -10 4 -6 11 -8 16 -4 14 8 0 24 -22 24 -15 0
-19 5 -16 18 26 93 19 102 -77 102 -43 0 -77 -5 -84 -12z m48 -23 c0 -18 -5
-25 -20 -25 -20 0 -28 28 -13 43 15 16 33 6 33 -18z m100 21 c0 -2 3 -11 6
-20 4 -12 0 -16 -15 -16 -14 0 -21 6 -21 20 0 11 7 20 15 20 8 0 15 -2 15 -4z"/>
<path d="M2316 474 c-10 -10 -16 -33 -16 -65 l0 -49 40 0 c22 0 40 -4 40 -10
0 -5 5 -10 10 -10 6 0 10 7 10 15 0 11 -11 15 -39 15 -43 0 -52 11 -44 56 8
43 23 57 55 50 15 -3 28 -1 28 4 0 16 -67 11 -84 -6z"/>
</g>
</svg>
